<svg width="68" height="378" viewBox="0 0 68 378" fill="none" xmlns="http://www.w3.org/2000/svg">
<path fillRule="evenodd" clipRule="evenodd" d="M14.0367 331.935C14.2229 331.895 14.4051 331.923 14.5855 332.015C14.7647 332.109 14.9339 332.252 15.093 332.444C15.2534 332.636 15.3896 332.87 15.5015 333.141C15.6147 333.414 15.691 333.717 15.7309 334.049C15.7441 334.181 15.7509 334.305 15.7509 334.417V334.865V335.225C15.7641 335.37 15.771 335.557 15.771 335.783V336.42V337.118C15.771 337.769 15.7509 338.603 15.7111 339.62C15.6719 340.636 15.5888 341.892 15.4627 343.387C15.3365 344.882 15.1431 346.645 14.8838 348.679C14.6254 350.712 14.263 353.071 13.7973 355.755C13.7714 355.861 13.7553 355.941 13.7482 355.994C13.7413 356.048 13.7313 356.107 13.7184 356.173C13.7184 356.187 13.7152 356.201 13.7083 356.213C13.7012 356.227 13.6983 356.247 13.6983 356.274C14.5354 356.393 15.4656 356.536 16.489 356.702C17.5123 356.869 18.734 357.071 20.1561 357.31C21.0863 357.469 22.0896 357.646 23.166 357.838C24.2424 358.031 25.3922 358.26 26.6138 358.526C27.2255 358.658 27.8665 358.805 28.5383 358.964C29.2094 359.125 29.8903 359.297 30.5812 359.482C30.9266 359.589 31.2781 359.695 31.6375 359.801C31.9962 359.907 32.3487 360.028 32.6941 360.16H32.6741C32.8733 360.227 33.0797 360.303 33.2919 360.389C33.5041 360.476 33.6904 360.558 33.8495 360.638C34.0358 360.744 34.2482 360.871 34.4876 361.017C34.7269 361.163 34.9262 361.329 35.0853 361.516C35.2315 361.675 35.3418 361.871 35.4149 362.103C35.4868 362.336 35.5039 362.565 35.4638 362.791C35.4249 362.965 35.3677 363.117 35.2946 363.25C35.2215 363.383 35.1384 363.509 35.0462 363.629C34.899 363.828 34.7538 363.994 34.6076 364.127C34.4614 364.259 34.3081 364.392 34.149 364.525C33.9096 364.712 33.6402 364.901 33.342 365.093C33.0425 365.286 32.72 365.475 32.3746 365.661C31.8568 365.968 31.3153 366.27 30.7503 366.568C30.1856 366.867 29.671 367.13 29.2052 367.355C28.5144 367.688 27.8575 368.007 27.2326 368.312C26.6077 368.618 26.0158 368.903 25.4582 369.17L24.7803 369.469H24.8003C24.6813 369.535 24.5581 369.595 24.4319 369.648C24.3058 369.701 24.1894 369.755 24.0833 369.807H24.1033C22.6544 370.499 21.3987 371.1 20.3353 371.611C19.2728 372.122 18.3096 372.605 17.4454 373.056C16.5821 373.508 15.7509 373.949 14.9539 374.381C14.1569 374.814 13.3057 375.302 12.4024 375.847H12.4224C12.011 376.113 11.5653 376.405 11.0866 376.724C10.6089 377.043 10.1574 377.382 9.73173 377.74C9.71878 377.767 9.69873 377.79 9.67184 377.811C9.64569 377.83 9.61855 377.853 9.59165 377.88L8.95383 378L7.55886 376.884C7.53294 376.763 7.51583 376.671 7.50874 376.604C7.50287 376.538 7.49578 376.475 7.48869 376.415C7.48282 376.356 7.47965 376.312 7.47965 376.286C7.5459 376.032 7.62193 375.731 7.70896 375.379C7.79526 375.026 7.87129 374.711 7.9373 374.431C7.9774 374.272 8.01749 374.11 8.05661 373.944C8.0967 373.777 8.13654 373.607 8.17664 373.435C8.46903 372.199 8.73135 371.073 8.96384 370.056C9.19707 369.04 9.40633 368.097 9.59164 367.226C9.77794 366.356 9.94809 365.551 10.1004 364.815C10.2534 364.077 10.3967 363.376 10.529 362.711C10.6221 362.273 10.7011 361.881 10.7683 361.535C10.8353 361.19 10.8974 360.858 10.9575 360.539C11.0167 360.22 11.0766 359.895 11.1367 359.562C11.1969 359.23 11.2658 358.851 11.346 358.426C10.1373 358.279 9.18997 358.174 8.50618 358.107C7.82117 358.041 7.33344 357.994 7.04105 357.968C6.97407 357.954 6.91393 357.947 6.86088 357.947C6.23698 357.867 5.72237 357.678 5.31679 357.379C4.91121 357.081 4.72908 356.738 4.76794 356.353C4.79508 356.167 4.87527 356.001 5.00728 355.855C5.14052 355.709 5.31678 355.586 5.5351 355.486C5.75536 355.386 6.00766 355.32 6.29321 355.286C6.5785 355.253 6.88092 355.257 7.20045 355.297L8.47513 355.477C8.58221 355.503 8.69834 355.522 8.82449 355.536C8.95064 355.549 9.08706 355.568 9.23325 355.596C9.53859 355.649 9.89797 355.705 10.3097 355.765C10.7211 355.825 11.2069 355.894 11.7645 355.974V355.844C11.7645 355.798 11.7716 355.755 11.7846 355.716C11.7975 355.662 11.8075 355.612 11.8146 355.566C11.8217 355.52 11.8308 355.463 11.8447 355.396C11.8577 355.33 11.8648 355.27 11.8648 355.217C11.8648 355.164 11.8706 355.11 11.8838 355.058V355.077C12.2302 352.925 12.5026 351.018 12.7009 349.356C12.9011 347.696 13.0502 346.231 13.1504 344.961C13.2497 343.693 13.3167 342.6 13.3487 341.683C13.3827 340.766 13.3988 339.975 13.3988 339.31V338.733C13.3859 338.228 13.3727 337.799 13.3597 337.447C13.3458 337.095 13.3257 336.786 13.2996 336.521V336.54C13.2866 336.46 13.2766 336.377 13.2697 336.291C13.2626 336.205 13.2597 336.108 13.2597 336.002C13.2465 335.856 13.2365 335.726 13.2296 335.614C13.2226 335.5 13.2064 335.37 13.1795 335.225C13.1666 335.118 13.1565 335.009 13.1504 334.895C13.1433 334.783 13.1275 334.666 13.0993 334.547C13.0993 334.52 13.0964 334.484 13.0903 334.437C13.0834 334.391 13.0803 334.355 13.0803 334.328C13.0534 334.035 13.0534 333.753 13.0803 333.48C13.1074 333.208 13.1595 332.962 13.2397 332.743C13.3196 332.524 13.4289 332.344 13.569 332.205C13.7083 332.066 13.8645 331.975 14.0367 331.935V331.935ZM13.9776 358.745L13.6583 358.706L13.3397 358.666C13.3258 358.666 13.3167 358.662 13.3097 358.656C13.3028 358.649 13.2928 358.645 13.2796 358.645C13.2537 358.805 13.2265 358.965 13.1996 359.125C13.1735 359.283 13.1476 359.442 13.1195 359.603V359.583C12.9603 360.54 12.7911 361.539 12.6117 362.582C12.4325 363.626 12.2504 364.699 12.0641 365.802C11.8907 366.759 11.7086 367.739 11.5152 368.742C11.3231 369.746 11.1138 370.785 10.8874 371.86C10.8473 372.087 10.8043 372.306 10.7583 372.519C10.7121 372.732 10.6623 372.951 10.609 373.177C10.5691 373.362 10.529 373.555 10.4889 373.755C10.4488 373.954 10.4087 374.147 10.3686 374.333C10.3567 374.399 10.3466 374.462 10.3398 374.522C10.3327 374.582 10.3498 374.608 10.3887 374.602C10.4288 374.595 10.506 374.532 10.618 374.413C10.7322 374.294 10.8945 374.093 11.1067 373.814C11.1598 373.788 11.2199 373.757 11.2859 373.725C11.3531 373.692 11.3991 373.669 11.4262 373.655C11.9179 373.389 12.4056 373.12 12.8911 372.847C13.3759 372.575 13.8113 372.346 14.1959 372.159C14.6746 371.921 15.1562 371.692 15.641 371.472C16.1265 371.252 16.5951 371.044 17.0469 370.845C17.2061 370.778 17.3652 370.706 17.5256 370.626C17.6848 370.545 17.8439 370.473 18.004 370.405C18.0703 370.379 18.1935 370.323 18.3727 370.237C18.5519 370.151 18.6952 370.081 18.8013 370.027C19.5853 369.682 20.4586 369.297 21.4218 368.871C22.385 368.445 23.5047 367.941 24.7803 367.356L24.9405 367.276C25.0468 367.236 25.1529 367.184 25.259 367.117C25.8308 366.851 26.4447 366.559 27.1026 366.24C27.7605 365.921 28.4553 365.576 29.1862 365.203C29.2383 365.177 29.2985 365.144 29.3647 365.104C29.4317 365.064 29.4918 365.031 29.5449 365.005C29.8903 364.818 30.2587 364.618 30.6504 364.406C31.0428 364.194 31.4315 363.975 31.817 363.749H31.797C32.0632 363.589 32.3125 363.43 32.5438 363.269C32.7773 363.111 32.9665 362.965 33.1127 362.832C33.1787 362.805 33.2548 362.792 33.342 362.792C33.4281 362.792 33.5041 362.805 33.5704 362.832C33.5183 362.792 33.4511 362.749 33.3721 362.702C33.2919 362.656 33.2059 362.6 33.1127 362.533C32.8203 362.373 32.5881 362.267 32.4148 362.214C32.1094 362.107 31.817 362.008 31.5376 361.915C31.2581 361.822 30.9868 361.736 30.7203 361.655H30.7404C30.1698 361.496 29.618 361.356 29.0862 361.237C28.5545 361.117 28.0167 361.005 27.471 360.899C26.4085 360.673 25.4052 360.477 24.4618 360.31C23.5186 360.145 22.6084 359.988 21.7313 359.842C20.3754 359.616 19.0936 359.423 17.884 359.264C16.6753 359.104 15.5918 358.959 14.6344 358.824C14.5684 358.813 14.5083 358.805 14.4552 358.805C14.4022 358.805 14.3491 358.799 14.2961 358.784C14.243 358.773 14.19 358.765 14.1369 358.765C14.0839 358.765 14.0306 358.759 13.9775 358.745L13.9776 358.745Z" fill="#001680"/>
<path fillRule="evenodd" clipRule="evenodd" d="M23.7436 292.529C23.6113 292.238 23.5444 291.972 23.5444 291.732C23.5444 291.453 23.6042 291.205 23.7236 290.984C23.8436 290.765 24.0098 290.604 24.2223 290.497C24.5807 290.325 24.9462 290.331 25.3187 290.517C25.6901 290.703 25.9766 291.016 26.1759 291.453C26.1888 291.48 26.1949 291.497 26.1949 291.503C26.1949 291.51 26.2018 291.527 26.215 291.553C26.2289 291.579 26.2419 291.614 26.2548 291.652C26.269 291.692 26.269 291.712 26.2548 291.712C26.282 291.807 26.335 291.939 26.4152 292.111C26.4942 292.284 26.6135 292.577 26.7736 292.988C26.9198 293.361 27.1151 293.845 27.3616 294.443C27.6078 295.041 27.9363 295.799 28.3478 296.715C28.6142 297.287 28.9066 297.941 29.2249 298.679C29.5445 299.417 29.897 300.224 30.2813 301.101C30.3877 301.353 30.4977 301.606 30.6109 301.858C30.7231 302.111 30.8392 302.37 30.9592 302.636C31.1455 303.074 31.3479 303.53 31.5672 304.001C31.7865 304.473 32.0159 304.96 32.2552 305.466L32.6737 306.364V306.344C32.7928 306.596 32.9131 306.855 33.0321 307.121C33.1514 307.387 33.2715 307.652 33.3917 307.917C33.6169 308.423 33.8462 308.948 34.0785 309.493C34.3119 310.038 34.5403 310.608 34.7664 311.206C34.9789 311.831 35.1852 312.476 35.3844 313.14C35.5837 313.804 35.7157 314.555 35.7829 315.393C35.7959 315.672 35.793 315.954 35.7729 316.24C35.7529 316.525 35.6959 316.808 35.6037 317.087C35.5235 317.273 35.4343 317.45 35.3343 317.616C35.2351 317.782 35.1121 317.937 34.9659 318.083C34.6865 318.363 34.3809 318.555 34.0486 318.661H34.0687C33.776 318.768 33.5137 318.824 33.2815 318.831C33.0492 318.837 32.8258 318.833 32.6136 318.821C32.4143 318.794 32.2782 318.774 32.2051 318.761C32.132 318.747 32.0628 318.734 31.9958 318.721C31.9828 318.721 31.9687 318.718 31.9557 318.711C31.9428 318.705 31.9296 318.701 31.9156 318.701L31.5773 318.602C30.9394 318.415 30.4077 318.225 29.9831 318.033C29.5574 317.841 29.1389 317.639 28.7272 317.426C28.514 317.319 28.3277 317.226 28.1686 317.147C28.0094 317.067 27.8432 316.984 27.6708 316.897C27.4977 316.81 27.3014 316.707 27.0821 316.588C26.8629 316.469 26.5873 316.316 26.2548 316.13C26.3622 316.555 26.4583 316.977 26.5443 317.395C26.6304 317.814 26.7206 318.276 26.8137 318.781C27.079 320.256 27.2552 321.621 27.3415 322.877C27.4276 324.132 27.4706 325.292 27.4706 326.356C27.4586 327.418 27.4146 328.359 27.3415 329.175C27.2694 329.993 27.1792 330.707 27.0721 331.318C26.8868 332.395 26.7105 333.229 26.5443 333.821C26.3781 334.412 26.2619 334.82 26.1949 335.046C26.1949 335.073 26.1918 335.09 26.1859 335.096C26.1788 335.102 26.1759 335.113 26.1759 335.125C26.1759 335.14 26.1688 335.145 26.1558 335.145C25.9825 335.611 25.7072 335.942 25.3288 336.142C24.9491 336.342 24.5878 336.368 24.2421 336.222C23.9228 336.063 23.7104 335.801 23.6043 335.434C23.4982 335.07 23.5111 334.694 23.6444 334.308V334.348C24.0299 333.02 24.2722 332.115 24.3714 331.638C24.4714 331.159 24.5276 331.173 24.5416 331.678C24.6477 331.226 24.7638 330.634 24.8902 329.903C25.0163 329.173 25.1183 328.322 25.1985 327.352C25.2256 326.981 25.2486 326.581 25.2686 326.155C25.2887 325.731 25.2987 325.299 25.2987 324.86C25.2987 324.103 25.2615 323.223 25.1884 322.219C25.1153 321.215 24.9921 320.169 24.82 319.08C24.6738 318.257 24.5347 317.495 24.4015 316.798C24.2692 316.1 24.136 315.499 24.003 314.993C24.003 314.981 23.9959 314.941 23.9829 314.874C23.9697 314.808 23.9497 314.755 23.9228 314.715C23.9228 314.702 23.9199 314.678 23.9137 314.645C23.9067 314.613 23.9027 314.589 23.9027 314.575C23.9027 314.602 23.8966 314.602 23.8827 314.575L23.8436 314.535C23.8436 314.495 23.8367 314.422 23.8235 314.316C23.8106 314.209 23.7905 314.097 23.7636 313.978C23.7375 313.858 23.7135 313.744 23.6935 313.638C23.6734 313.532 23.6573 313.459 23.6443 313.419L24.92 313.14C24.9332 313.14 24.9792 313.164 25.0594 313.21C25.1383 313.257 25.2256 313.309 25.3187 313.37C25.4119 313.429 25.4979 313.482 25.5769 313.529C25.6571 313.576 25.7043 313.599 25.7172 313.599L25.8363 313.658C25.9035 313.686 25.9666 313.718 26.0255 313.758C26.0857 313.799 26.1429 313.83 26.1949 313.858L26.1759 313.838C26.2419 313.865 26.2849 313.888 26.305 313.908C26.325 313.928 26.3822 313.957 26.4741 313.997C26.5815 314.064 26.7005 314.13 26.8338 314.196C26.966 314.263 27.0721 314.323 27.1521 314.376L27.1322 314.356C27.9163 314.742 28.6101 315.067 29.2149 315.332C29.8197 315.599 30.3815 315.824 30.8993 316.011H30.8793C31.1054 316.077 31.3318 316.144 31.5572 316.209C31.7833 316.276 32.0288 316.336 32.2953 316.389C32.4014 316.415 32.5133 316.436 32.6336 316.449C32.7527 316.462 32.84 316.469 32.893 316.469C33.0522 316.469 33.1783 316.442 33.2714 316.389C33.3245 316.362 33.3575 316.276 33.3717 316.13C33.3846 315.984 33.3776 315.805 33.3516 315.592C33.3387 315.22 33.2944 314.818 33.2213 314.385C33.1482 313.955 33.0522 313.519 32.9331 313.079C32.7869 312.549 32.6136 311.978 32.4143 311.366C32.2151 310.754 32.0227 310.204 31.8366 309.711C31.7833 309.566 31.7335 309.426 31.6873 309.292C31.6403 309.16 31.5841 309.021 31.5171 308.874C31.4511 308.729 31.3949 308.582 31.3479 308.436C31.3017 308.29 31.2516 308.157 31.1986 308.037C31.1717 307.984 31.1516 307.932 31.1387 307.877C31.1255 307.825 31.1054 307.771 31.0795 307.719C31.0524 307.639 31.0255 307.566 30.9993 307.499C30.9724 307.433 30.9463 307.367 30.9194 307.3C30.7732 306.968 30.637 306.652 30.5106 306.352C30.3845 306.054 30.2483 305.751 30.1021 305.446V305.466C30.0222 305.293 29.9459 305.121 29.8728 304.948C29.7997 304.775 29.7237 304.596 29.6435 304.41V304.43C29.5645 304.257 29.4782 304.064 29.3841 303.852C29.2922 303.64 29.2049 303.439 29.1259 303.253C28.0894 300.994 27.2252 299.183 26.5343 297.823C25.8434 296.46 25.3246 295.46 24.9792 294.822C24.834 294.542 24.7078 294.307 24.6007 294.115C24.4946 293.922 24.4015 293.752 24.3213 293.606C24.3084 293.58 24.2954 293.556 24.2812 293.537C24.2692 293.516 24.2553 293.493 24.2421 293.467L24.2622 293.487C24.169 293.327 24.0829 293.174 24.003 293.028C23.9228 292.882 23.8368 292.723 23.7436 292.549L23.7436 292.529Z" fill="#001680"/>
<path fillRule="evenodd" clipRule="evenodd" d="M23.8437 259.002C23.6444 258.71 23.5444 258.385 23.5444 258.026C23.5444 257.8 23.5875 257.594 23.6735 257.408C23.7605 257.222 23.8967 257.07 24.083 256.95C24.3884 256.75 24.7341 256.714 25.1184 256.841C25.5051 256.967 25.8163 257.202 26.0557 257.548V257.527C26.1087 257.594 26.1459 257.651 26.1659 257.697C26.186 257.744 26.209 257.787 26.2351 257.827C26.2491 257.854 26.2549 257.871 26.2549 257.877C26.2549 257.884 26.262 257.9 26.275 257.926C26.3021 257.993 26.3381 258.066 26.3852 258.146C26.4312 258.225 26.5075 258.352 26.6136 258.524C26.6537 258.605 26.6935 258.681 26.7336 258.754C26.7737 258.827 26.8268 258.916 26.893 259.022C26.9329 259.102 26.9729 259.176 27.0121 259.242C27.0522 259.309 27.0991 259.388 27.1522 259.481V259.461C27.1793 259.528 27.2184 259.601 27.2724 259.68C27.3245 259.76 27.3715 259.833 27.4115 259.899C27.5047 260.046 27.6039 260.209 27.7101 260.388C27.8171 260.567 27.9232 260.75 28.0296 260.936H28.0095C28.0895 261.082 28.1726 261.229 28.2589 261.375C28.3449 261.522 28.4349 261.667 28.5271 261.813L28.7865 262.252C28.8265 262.319 28.8596 262.384 28.8867 262.451C28.9136 262.518 28.9397 262.564 28.9657 262.59C29.3382 263.242 29.7568 263.992 30.2215 264.842C30.687 265.693 31.1786 266.664 31.6964 267.752C31.7236 267.806 31.7505 267.866 31.7766 267.932C31.8035 267.999 31.8297 268.052 31.8566 268.092C31.8827 268.159 31.9098 268.215 31.9358 268.261C31.9629 268.308 31.9888 268.351 32.0159 268.391C32.3213 269.029 32.6408 269.71 32.9721 270.434C33.3046 271.159 33.604 271.992 33.8693 272.935C34.0287 273.493 34.1717 274.072 34.2981 274.669C34.4243 275.267 34.4741 275.906 34.4472 276.583C34.4211 276.942 34.3641 277.317 34.2781 277.71C34.1918 278.101 34.0627 278.477 33.8893 278.835C33.7031 279.222 33.4407 279.583 33.1024 279.922C32.7628 280.26 32.4015 280.537 32.0159 280.749C31.6844 280.921 31.3581 281.055 31.0395 281.148C30.72 281.24 30.4078 281.314 30.1022 281.367C30.4347 281.672 30.7672 282.025 31.0987 282.423V282.403C31.3649 282.682 31.6404 282.999 31.9257 283.35C32.2123 283.703 32.5215 284.105 32.853 284.556C33.1716 285.008 33.508 285.516 33.8593 286.081C34.2118 286.646 34.5213 287.261 34.7866 287.925L34.7665 287.905C35.0191 288.53 35.2012 289.141 35.3144 289.738C35.4276 290.336 35.4836 290.929 35.4836 291.513V291.871C35.4836 292.004 35.4777 292.118 35.4635 292.209C35.4376 292.529 35.3745 292.874 35.2743 293.247C35.1753 293.619 35.032 293.958 34.8457 294.264C34.6465 294.596 34.3842 294.891 34.0588 295.149C33.7331 295.41 33.4107 295.592 33.0924 295.698C32.7599 295.805 32.4475 295.869 32.1551 295.887C31.8627 295.907 31.5774 295.911 31.2979 295.898C31.0065 295.871 30.7501 295.837 30.5308 295.798C30.3115 295.758 30.0954 295.711 29.8829 295.658C29.5375 295.553 29.192 295.439 28.8466 295.32C28.5012 295.199 28.1626 295.067 27.8301 294.92C27.3245 294.695 26.8568 294.479 26.4244 294.272C25.9926 294.067 25.6643 293.898 25.4379 293.766C25.3318 293.698 25.2387 293.64 25.1585 293.585C25.0795 293.533 25.0064 293.486 24.9402 293.446H24.9592C24.9062 293.419 24.857 293.396 24.8101 293.376C24.7639 293.356 24.728 293.333 24.6998 293.307L24.5417 293.227C24.1561 292.987 23.9029 292.672 23.7838 292.281C23.6645 291.888 23.6975 291.553 23.8828 291.273C24.0429 291.087 24.2253 290.952 24.4317 290.865C24.6377 290.779 24.847 290.735 25.0595 290.735C25.2057 290.735 25.3518 290.752 25.498 290.786C25.6442 290.817 25.7904 290.875 25.9366 290.954C25.9635 290.982 25.9926 291.008 26.0256 291.034C26.0598 291.061 26.1029 291.087 26.1559 291.114L26.1359 291.094C26.162 291.121 26.1919 291.141 26.2261 291.154C26.2591 291.167 26.295 291.194 26.3351 291.233C26.4813 291.339 26.6906 291.482 26.9629 291.663C27.2353 291.841 27.6108 292.07 28.0895 292.35C28.3149 292.483 28.5711 292.619 28.8566 292.758C29.1429 292.897 29.3984 293.015 29.6235 293.108C29.9159 293.227 30.2455 293.343 30.611 293.456C30.9764 293.569 31.352 293.64 31.7365 293.665C31.8966 293.68 32.0519 293.675 32.2052 293.655C32.3585 293.635 32.4875 293.592 32.5936 293.525C32.767 293.433 32.909 293.3 33.0222 293.127C33.1354 292.955 33.2185 292.768 33.2716 292.569L33.2515 292.589C33.3576 292.097 33.4107 291.665 33.4107 291.293C33.4107 290.483 33.2386 289.599 32.8931 288.643C32.6408 287.939 32.3484 287.31 32.0159 286.759C31.6844 286.207 31.3449 285.72 30.9994 285.293C30.654 284.856 30.3146 284.454 29.9831 284.088C29.6507 283.722 29.3443 283.406 29.0659 283.141C28.6402 282.73 28.2256 282.363 27.82 282.045C27.4147 281.726 27.0402 281.44 26.6935 281.188C26.6016 281.174 26.4813 281.134 26.3351 281.068H26.2351L26.3752 280.948C26.3481 280.935 26.285 280.849 26.186 280.69C26.0858 280.529 25.9858 280.351 25.8865 280.151C25.7875 279.952 25.7002 279.773 25.6271 279.612C25.554 279.453 25.5381 279.367 25.577 279.354L27.0923 278.955L27.4115 279.016L27.3115 278.976C27.3915 278.988 27.4707 278.995 27.5509 278.995C27.6308 278.995 27.7039 279.002 27.7702 279.016C27.8103 279.016 27.8462 279.019 27.8802 279.025C27.9132 279.031 27.9433 279.035 27.9694 279.035C28.0755 279.047 28.1726 279.056 28.2589 279.056H28.5471H28.9255C29.0598 279.056 29.1991 279.042 29.3443 279.016C29.5846 278.988 29.8298 278.948 30.0821 278.895C30.3347 278.842 30.588 278.749 30.8393 278.616C31.0657 278.51 31.2818 278.351 31.4871 278.139C31.6935 277.925 31.8565 277.647 31.9758 277.3V277.32C32.056 277.081 32.112 276.835 32.145 276.583C32.178 276.331 32.1951 276.084 32.1951 275.846C32.1822 275.62 32.1651 275.38 32.145 275.127C32.125 274.876 32.0949 274.637 32.056 274.41C31.9758 273.959 31.8856 273.546 31.7866 273.175C31.6874 272.803 31.5842 272.464 31.4781 272.158V272.178C31.2378 271.5 30.9864 270.88 30.72 270.314C30.4547 269.75 30.1694 269.128 29.8628 268.45C29.3443 267.441 28.8366 266.513 28.3378 265.67C27.8401 264.826 27.4047 264.112 27.0321 263.527C26.6475 262.93 26.3221 262.431 26.0557 262.033C25.7904 261.633 25.5511 261.294 25.3389 261.016C25.2186 260.857 25.1125 260.713 25.0193 260.587C24.9262 260.461 24.8401 260.344 24.76 260.239C24.7079 260.172 24.6539 260.106 24.6008 260.039C24.5477 259.973 24.5015 259.907 24.4615 259.839L24.4815 259.859C24.4546 259.807 24.4284 259.767 24.4016 259.74C24.3084 259.62 24.2153 259.501 24.1231 259.381C24.03 259.262 23.9368 259.128 23.8437 258.983V259.002Z" fill="#001680"/>
<path fillRule="evenodd" clipRule="evenodd" d="M23.9834 259.961C23.9032 259.761 23.8372 259.586 23.7842 259.433C23.7309 259.28 23.6849 259.137 23.6448 259.004C23.6047 258.872 23.5646 258.725 23.5248 258.566L23.5047 258.526C23.4116 258.115 23.4717 257.742 23.6849 257.41C23.8971 257.078 24.1895 256.878 24.5611 256.812C24.9065 256.786 25.219 256.878 25.4984 257.09C25.7779 257.304 25.97 257.576 26.0761 257.908V257.887C26.1032 257.981 26.1191 258.054 26.1262 258.108C26.1333 258.161 26.1362 258.22 26.1362 258.287C26.1362 258.353 26.1433 258.453 26.1563 258.585C26.1693 258.719 26.2093 258.925 26.2754 259.204C26.3025 259.309 26.3155 259.39 26.3155 259.443C26.3827 259.669 26.4746 259.941 26.5949 260.26C26.7139 260.579 26.9063 260.931 27.1726 261.317H27.1926C27.3249 261.502 27.4911 261.691 27.6904 261.885C27.8896 262.077 28.1289 262.226 28.4084 262.333C28.5145 262.359 28.6147 262.383 28.7079 262.402C28.8008 262.422 28.9 262.433 29.0061 262.433C29.2584 262.433 29.5249 262.396 29.8033 262.322C30.0825 262.25 30.3749 262.133 30.6805 261.974C31.08 261.801 31.4445 261.449 31.777 260.917C31.9633 260.638 32.1324 260.34 32.2857 260.021C32.4378 259.702 32.5681 259.37 32.6742 259.025C33.1519 257.549 33.411 255.796 33.4511 253.762C33.4643 253.177 33.4553 252.662 33.4211 252.218C33.3881 251.772 33.358 251.363 33.3321 250.992V250.773C33.3049 250.386 33.2749 250.034 33.2419 249.715C33.2088 249.397 33.1587 249.045 33.0927 248.66C33.0267 248.247 32.9495 247.826 32.8634 247.394C32.7774 246.962 32.66 246.494 32.5138 245.988V246.008C32.3417 245.423 32.1195 244.752 31.8459 243.996C31.5745 243.239 31.2061 242.361 30.7404 241.364V241.384C30.2488 240.388 29.7743 239.487 29.3156 238.683C28.857 237.879 28.4155 237.158 27.9899 236.52C27.5513 235.842 27.1596 235.261 26.8142 234.776C26.4687 234.291 26.1624 233.883 25.8969 233.55C25.4312 232.953 25.0667 232.488 24.8005 232.155C24.5352 231.824 24.3357 231.585 24.2027 231.437C24.1756 231.397 24.1497 231.366 24.1235 231.338C23.9103 231.046 23.804 230.733 23.804 230.401C23.804 230.202 23.8441 230.013 23.9233 229.832C24.0035 229.654 24.1164 229.504 24.2626 229.385C24.5152 229.199 24.7804 229.105 25.0598 229.105C25.272 229.105 25.4813 229.155 25.6876 229.255C25.894 229.354 26.0702 229.498 26.2155 229.683C26.2294 229.697 26.2355 229.71 26.2355 229.723C26.2355 229.737 26.2424 229.744 26.2553 229.744C26.3096 229.81 26.3785 229.906 26.4646 230.033C26.5519 230.159 26.668 230.335 26.8142 230.56C26.8401 230.614 26.8733 230.667 26.9134 230.72C26.9533 230.773 27.0005 230.834 27.0525 230.9C27.1195 230.993 27.1858 231.092 27.2528 231.199C27.3188 231.305 27.3919 231.417 27.4711 231.538C27.5251 231.618 27.5743 231.697 27.6212 231.777C27.6684 231.856 27.7244 231.943 27.7906 232.036C27.8175 232.089 27.8505 232.14 27.8896 232.185C27.9297 232.231 27.9637 232.281 27.9899 232.335V232.315C28.1762 232.621 28.3884 232.965 28.6277 233.351C28.867 233.737 29.1323 234.162 29.4247 234.627C29.8503 235.345 30.329 236.181 30.8597 237.138C31.3915 238.094 31.9491 239.231 32.5339 240.547C33.0798 241.796 33.5042 242.869 33.8108 243.766C34.1161 244.662 34.3755 245.451 34.5877 246.127C34.787 246.805 34.9532 247.41 35.0855 247.942C35.2187 248.473 35.3378 248.952 35.4448 249.377C35.524 249.762 35.5942 250.172 35.6541 250.603C35.7133 251.034 35.7705 251.503 35.8235 252.007C35.8494 252.195 35.8666 252.403 35.8736 252.636C35.8795 252.868 35.8824 253.098 35.8824 253.324C35.8824 253.709 35.8666 254.131 35.8336 254.59C35.7993 255.049 35.7433 255.523 35.6641 256.014C35.504 257.05 35.2747 257.988 34.9762 258.825C34.6769 259.662 34.3875 260.353 34.109 260.898C33.977 261.137 33.8166 261.406 33.6304 261.705C33.4453 262.005 33.259 262.259 33.0727 262.473C32.8605 262.738 32.6212 262.984 32.3547 263.21C32.0894 263.436 31.7709 263.635 31.3983 263.808H31.4184C30.993 264.021 30.5683 264.183 30.1427 264.297C29.7171 264.408 29.2985 264.465 28.8871 264.465C28.5815 264.465 28.3282 264.446 28.129 264.406C27.6112 264.299 27.1667 264.12 26.7941 263.868C26.4216 263.615 26.1091 263.357 25.8568 263.09C25.4312 262.625 25.0999 262.179 24.8606 261.755C24.6213 261.33 24.4289 260.978 24.2817 260.699L24.3017 260.718C24.1695 260.413 24.0634 260.161 23.9834 259.961L23.9834 259.961Z" fill="#001680"/>
<path fillRule="evenodd" clipRule="evenodd" d="M36.3208 172.716C36.3208 172.704 36.3149 172.694 36.301 172.687C36.2878 172.679 36.2749 172.664 36.2619 172.637L36.3208 172.756C36.2678 172.89 36.2088 173.033 36.1416 173.185C36.0756 173.338 35.9886 173.467 35.8822 173.573C35.7761 173.681 35.65 173.731 35.5038 173.723C35.3576 173.717 35.1755 173.621 34.9562 173.435C34.7369 173.249 34.4775 172.943 34.178 172.517C33.8795 172.092 33.5311 171.501 33.1326 170.743L33.1517 170.764C32.9664 170.458 32.74 170.099 32.4748 169.687C32.2093 169.275 31.943 168.889 31.6765 168.531C31.4113 168.212 31.1228 167.89 30.8104 167.564C30.4979 167.239 30.1554 166.976 29.7831 166.776V166.797C29.5978 166.69 29.4144 166.61 29.2352 166.558C29.056 166.505 28.8737 166.485 28.6876 166.498C28.4211 166.524 28.2158 166.664 28.0696 166.916C27.9635 167.115 27.8865 167.328 27.8403 167.555C27.7933 167.78 27.7572 168.013 27.7303 168.252V168.372C27.7173 168.478 27.7073 168.581 27.7002 168.68C27.6941 168.78 27.6902 168.877 27.6902 168.97C27.6902 169.103 27.6941 169.262 27.7002 169.447C27.7073 169.634 27.7242 169.813 27.7503 169.986C27.8173 170.61 27.9134 171.258 28.0398 171.929C28.1659 172.6 28.3089 173.222 28.4683 173.794C28.4813 173.794 28.4884 173.8 28.4884 173.813C28.4884 173.826 28.4913 173.836 28.4982 173.843C28.5043 173.85 28.5072 173.866 28.5072 173.893C28.5343 173.985 28.5515 174.062 28.5573 174.123C28.5644 174.181 28.5744 174.226 28.5874 174.252C28.8668 175.367 28.99 176.135 28.9568 176.554C28.9228 176.972 28.7637 177.149 28.4784 177.083C28.1928 177.015 27.8034 176.76 27.3117 176.315C26.8201 175.87 26.2551 175.348 25.6173 174.75L24.8003 173.972C23.7238 173.016 22.5883 172.02 21.3916 170.982C20.1961 169.945 18.9732 168.923 17.7247 167.913C17.0866 167.394 16.442 166.873 15.7909 166.348C15.1401 165.824 14.4622 165.302 13.7581 164.784C13.0533 164.279 12.3334 163.771 11.5953 163.259C10.8572 162.747 10.1233 162.285 9.39234 161.873V161.893C8.91366 161.628 8.45307 161.399 8.00739 161.206C7.5627 161.012 7.16029 160.884 6.80165 160.817H6.84077C6.68161 160.804 6.60143 160.791 6.60143 160.777H6.58237L6.60143 160.717L6.58237 160.757L6.56232 160.817L6.52247 161.075L6.44229 161.435L6.46233 161.395C6.43618 161.542 6.4193 161.681 6.41221 161.814C6.40635 161.947 6.40317 162.06 6.40317 162.152C6.40317 162.339 6.41613 162.548 6.44229 162.781C6.46942 163.012 6.50243 163.236 6.54252 163.448C6.6095 163.78 6.68163 164.103 6.76181 164.415C6.84078 164.727 6.93392 165.036 7.041 165.342C7.26641 165.927 7.51283 166.505 7.77808 167.076C8.04456 167.647 8.30982 168.185 8.57507 168.69V168.671C8.88163 169.242 9.1931 169.787 9.51238 170.305C9.83094 170.823 10.1502 171.321 10.4688 171.8C10.8272 172.345 11.2137 172.907 11.6254 173.484C12.0368 174.062 12.4854 174.67 12.9702 175.308C13.4557 175.946 13.9836 176.614 14.5554 177.311C15.1272 178.009 15.7579 178.749 16.4488 179.534C17.7917 181.089 19.492 182.919 21.5507 185.025C23.6117 187.131 26.0429 189.473 28.8468 192.052H28.8267C29.5448 192.703 30.2687 193.344 30.9996 193.975C31.7306 194.606 32.4347 195.208 33.1126 195.778C33.458 196.057 33.7905 196.324 34.1088 196.576C34.1489 196.603 34.189 196.636 34.2291 196.676C34.2682 196.715 34.3081 196.749 34.3482 196.775L34.5675 196.934C34.6205 196.961 34.6797 197.009 34.7469 197.075C34.8139 197.141 34.886 197.247 34.9662 197.393L35.1654 197.592V197.731C35.2185 197.826 35.2745 197.925 35.3346 198.031C35.3948 198.137 35.4578 198.263 35.5238 198.41L35.1454 198.23V198.349C35.1454 198.376 35.1383 198.396 35.1254 198.41C35.0322 198.556 34.953 198.669 34.886 198.749C34.82 198.829 34.7567 198.885 34.6968 198.918C34.6367 198.951 34.5775 198.968 34.5176 198.968H34.3081H34.2091C34.103 198.968 34.0257 198.961 33.9797 198.948C33.9326 198.934 33.8695 198.901 33.7905 198.848V198.869C33.7103 198.855 33.6502 198.831 33.6104 198.798C33.5703 198.766 33.5311 198.735 33.4911 198.709L32.8532 198.389L32.9535 198.33C32.9263 198.303 32.8733 198.276 32.7931 198.25L32.8131 198.27C32.773 198.244 32.74 198.22 32.7141 198.2C32.687 198.181 32.641 198.157 32.5738 198.131L32.4948 198.091C32.4677 198.078 32.4418 198.057 32.4146 198.031C32.2283 197.925 32.0562 197.829 31.8968 197.742C31.7367 197.656 31.5644 197.559 31.3783 197.453L31.3981 197.473C29.9232 196.715 28.5214 196.021 27.1924 195.39C25.8637 194.759 24.581 194.164 23.3452 193.606C21.2994 192.689 19.3419 191.825 17.4754 191.014C15.6088 190.205 13.9774 189.5 12.5817 188.901C12.3964 188.821 12.2231 188.746 12.064 188.672C11.9038 188.6 11.7444 188.53 11.5853 188.464C10.7081 188.091 9.86101 187.733 9.04372 187.387C8.22669 187.042 7.47274 186.723 6.78186 186.43C6.09073 186.138 5.47905 185.881 4.94733 185.663C4.41658 185.444 3.99095 185.268 3.67241 185.134C3.52621 185.068 3.39615 185.011 3.28296 184.965C3.17074 184.919 3.06073 184.876 2.95463 184.836C2.83533 184.782 2.72213 184.733 2.61506 184.687C2.50895 184.64 2.42291 184.604 2.35665 184.577H2.37669C2.01732 184.417 1.68875 184.235 1.38951 184.029C1.09101 183.823 0.838712 183.613 0.632381 183.4C0.42605 183.188 0.279852 182.975 0.193795 182.763C0.107737 182.551 0.0906242 182.357 0.143676 182.184C0.32997 181.813 0.701565 181.626 1.26019 181.626C1.53864 181.626 1.86794 181.674 2.24664 181.766C2.62606 181.859 3.02064 181.992 3.43209 182.165C3.59247 182.231 3.76457 182.308 3.95087 182.395C4.13716 182.481 4.38945 182.597 4.70898 182.743C4.93413 182.849 5.20672 182.972 5.52601 183.112C5.84456 183.251 6.22691 183.421 6.67161 183.62C7.11728 183.818 7.63189 184.052 8.21668 184.317C8.80145 184.584 9.4723 184.883 10.2304 185.214C10.4028 185.294 10.5778 185.371 10.7582 185.444C10.9374 185.517 11.1196 185.6 11.3059 185.692H11.2858C11.432 185.759 11.5882 185.829 11.7545 185.902C11.9207 185.976 12.084 186.051 12.2432 186.132H12.2231C12.5285 186.264 12.8441 186.407 13.1695 186.56C13.4959 186.712 13.8374 186.869 14.1958 187.028C15.2463 187.494 16.399 188.008 17.6546 188.573C18.9102 189.138 20.2291 189.739 21.6109 190.378C21.8243 190.484 22.0294 190.584 22.2299 190.676C22.4282 190.769 22.6413 190.869 22.8667 190.975C23.0398 191.054 23.2391 191.148 23.4645 191.254C23.6909 191.36 23.897 191.46 24.0832 191.553H24.0632C24.9264 191.965 25.8107 192.377 26.7138 192.789C23.8309 190.078 21.2593 187.533 19.0004 185.154C16.7412 182.776 14.8607 180.696 13.3597 178.916C12.5617 177.973 11.8346 177.086 11.1768 176.254C10.5189 175.424 9.91797 174.633 9.37231 173.882C8.82762 173.132 8.32987 172.411 7.87834 171.72C7.42655 171.029 7.00117 170.351 6.60145 169.687C6.2301 169.049 5.87146 168.365 5.52602 167.635C5.18058 166.903 4.8943 166.231 4.66889 165.621C4.53565 165.276 4.41953 164.897 4.3193 164.484C4.22028 164.073 4.14328 163.674 4.09121 163.288C4.06407 163.102 4.04402 162.909 4.03106 162.711C4.01811 162.512 4.01102 162.278 4.01102 162.013C4.01102 161.786 4.02104 161.548 4.04109 161.296C4.06015 161.044 4.10416 160.791 4.17017 160.538L4.15013 160.558C4.17726 160.438 4.2132 160.301 4.26039 160.149C4.30635 159.997 4.36943 159.841 4.4496 159.681C4.52881 159.522 4.63173 159.361 4.75813 159.202C4.88526 159.044 5.0405 158.897 5.22654 158.764C5.45292 158.617 5.69227 158.518 5.94456 158.465C6.19685 158.412 6.4362 158.385 6.66159 158.385C6.79484 158.385 6.91095 158.388 7.01119 158.396C7.1102 158.402 7.20627 158.412 7.29942 158.425C7.84411 158.531 8.3729 158.697 8.88459 158.924C9.39627 159.149 9.91113 159.401 10.4287 159.681C11.452 160.253 12.4754 160.897 13.4988 161.614C14.5224 162.332 15.5846 163.136 16.6882 164.026C18.1902 165.249 19.5451 166.392 20.7538 167.454C21.9634 168.518 23.0728 169.508 24.0832 170.424C24.4287 170.757 24.7702 171.082 25.1098 171.401C25.4481 171.72 25.7706 172.032 26.0759 172.338C26.05 172.179 26.0229 172.02 25.997 171.859C25.9698 171.7 25.9439 171.541 25.9168 171.382C25.8508 170.89 25.7965 170.395 25.7576 169.897C25.7175 169.398 25.7104 168.883 25.7376 168.352C25.7635 168.072 25.7936 167.794 25.8266 167.514C25.8608 167.235 25.9297 166.957 26.0358 166.677C26.1432 166.398 26.2923 166.11 26.4845 165.81C26.6778 165.511 26.9262 165.249 27.2325 165.023C27.5511 164.811 27.9066 164.672 28.2989 164.604C28.6906 164.537 29.0531 164.525 29.3844 164.564C29.6509 164.604 29.9103 164.678 30.1625 164.784C30.4148 164.89 30.6603 165.016 30.8996 165.162C30.2618 163.78 29.6839 162.58 29.1663 161.565C28.6475 160.548 28.1957 159.669 27.8105 158.924C27.2254 157.847 26.7338 156.941 26.3353 156.203C25.9368 155.465 25.5973 154.851 25.319 154.358C25.2919 154.307 25.2589 154.253 25.2188 154.199C25.1787 154.146 25.1467 154.087 25.1186 154.02L25.1386 154.04C25.0325 153.854 24.9264 153.668 24.8203 153.481C24.7142 153.296 24.6081 153.11 24.5018 152.925C24.2355 152.472 24.0363 152.043 23.9031 151.638C23.7708 151.233 23.7038 150.878 23.7038 150.571C23.7038 150.187 23.817 149.894 24.0431 149.694L24.1624 149.615C24.3216 149.535 24.5079 149.526 24.7201 149.585C24.9335 149.645 25.1587 149.764 25.398 149.945C25.6373 150.124 25.8796 150.359 26.126 150.652C26.3725 150.944 26.6018 151.269 26.814 151.629C26.88 151.761 26.9401 151.874 26.9932 151.967C27.0462 152.06 27.1064 152.18 27.1724 152.326C27.2255 152.445 27.2917 152.585 27.3716 152.744C27.4508 152.903 27.5579 153.114 27.6902 153.372C27.8234 153.631 27.9836 153.947 28.1689 154.318C28.3552 154.691 28.5813 155.144 28.8468 155.674C29.2724 156.539 29.8132 157.654 30.4711 159.023C31.129 160.391 31.91 162.106 32.8131 164.166C33.2517 165.162 33.7434 166.306 34.2883 167.595C34.8339 168.883 35.3847 170.219 35.9424 171.601C35.9695 171.668 35.9996 171.747 36.0326 171.84C36.0656 171.933 36.0947 172.032 36.1226 172.139L36.281 172.537C36.281 172.564 36.2878 172.591 36.301 172.616C36.301 172.63 36.3049 172.637 36.312 172.637C36.3179 172.637 36.3208 172.643 36.3208 172.656C36.335 172.67 36.3409 172.684 36.3409 172.696L36.3208 172.716ZM33.7103 198.829C33.926 198.829 34.0929 198.931 34.211 199.291C34.329 199.676 34.4796 199.83 34.7117 199.83C34.2598 199.83 33.926 199.445 33.7103 198.829ZM37.3222 173.718L36.3208 173.05V172.716C36.9986 172.944 37.3222 173.266 37.3222 173.718Z" fill="#001680"/>
<path fillRule="evenodd" clipRule="evenodd" d="M23.9834 153.023C23.9032 152.823 23.8372 152.647 23.7842 152.494C23.7309 152.342 23.6849 152.199 23.6448 152.066C23.6047 151.933 23.5646 151.786 23.5248 151.628L23.5047 151.588C23.4116 151.177 23.4717 150.804 23.6849 150.472C23.8971 150.14 24.1895 149.94 24.5611 149.874C24.9065 149.848 25.219 149.94 25.4984 150.152C25.7779 150.365 25.97 150.638 26.0761 150.97V150.949C26.1032 151.043 26.1191 151.115 26.1262 151.169C26.1333 151.223 26.1362 151.282 26.1362 151.349C26.1362 151.415 26.1433 151.515 26.1563 151.647C26.1693 151.78 26.2093 151.987 26.2754 152.266C26.3025 152.371 26.3155 152.451 26.3155 152.505C26.3827 152.73 26.4746 153.003 26.5949 153.322C26.7139 153.641 26.9063 153.992 27.1726 154.379H27.1926C27.3249 154.564 27.4911 154.753 27.6904 154.946C27.8896 155.139 28.1289 155.288 28.4084 155.395C28.5145 155.421 28.6147 155.445 28.7079 155.464C28.8008 155.484 28.9 155.494 29.0061 155.494C29.2584 155.494 29.5249 155.457 29.8033 155.384C30.0825 155.312 30.3749 155.195 30.6805 155.036C31.08 154.863 31.4445 154.511 31.777 153.979C31.9633 153.7 32.1324 153.401 32.2857 153.083C32.4378 152.764 32.5681 152.432 32.6742 152.087C33.1519 150.611 33.411 148.858 33.4511 146.823C33.4643 146.239 33.4553 145.724 33.4211 145.279C33.3881 144.834 33.358 144.425 33.3321 144.054V143.835C33.3049 143.448 33.2749 143.096 33.2419 142.777C33.2088 142.459 33.1587 142.107 33.0927 141.722C33.0267 141.309 32.9495 140.888 32.8634 140.456C32.7774 140.024 32.66 139.556 32.5138 139.05V139.07C32.3417 138.485 32.1195 137.814 31.8459 137.057C31.5745 136.3 31.2061 135.423 30.7404 134.426V134.446C30.2488 133.449 29.7743 132.549 29.3156 131.745C28.857 130.941 28.4155 130.22 27.9899 129.582C27.5513 128.904 27.1596 128.323 26.8142 127.838C26.4687 127.353 26.1624 126.944 25.8969 126.612C25.4312 126.014 25.0667 125.549 24.8005 125.217C24.5352 124.886 24.3357 124.646 24.2027 124.499C24.1756 124.459 24.1497 124.427 24.1235 124.4C23.9103 124.108 23.804 123.795 23.804 123.463C23.804 123.264 23.8441 123.074 23.9233 122.894C24.0035 122.715 24.1164 122.565 24.2626 122.447C24.5152 122.261 24.7804 122.167 25.0598 122.167C25.272 122.167 25.4813 122.217 25.6876 122.317C25.894 122.416 26.0702 122.559 26.2155 122.745C26.2294 122.759 26.2355 122.772 26.2355 122.785C26.2355 122.799 26.2424 122.806 26.2553 122.806C26.3096 122.872 26.3785 122.968 26.4646 123.094C26.5519 123.221 26.668 123.397 26.8142 123.622C26.8401 123.676 26.8733 123.729 26.9134 123.781C26.9533 123.835 27.0005 123.895 27.0525 123.961C27.1195 124.055 27.1858 124.153 27.2528 124.261C27.3188 124.367 27.3919 124.479 27.4711 124.599C27.5251 124.68 27.5743 124.758 27.6212 124.838C27.6684 124.918 27.7244 125.005 27.7906 125.098C27.8175 125.151 27.8505 125.201 27.8896 125.247C27.9297 125.293 27.9637 125.343 27.9899 125.396V125.376C28.1762 125.683 28.3884 126.027 28.6277 126.413C28.867 126.799 29.1323 127.224 29.4247 127.689C29.8503 128.406 30.329 129.242 30.8597 130.2C31.3915 131.156 31.9491 132.293 32.5339 133.609C33.0798 134.857 33.5042 135.931 33.8108 136.828C34.1161 137.724 34.3755 138.512 34.5877 139.189C34.787 139.867 34.9532 140.472 35.0855 141.004C35.2187 141.535 35.3378 142.014 35.4448 142.439C35.524 142.824 35.5942 143.234 35.6541 143.664C35.7133 144.096 35.7705 144.565 35.8235 145.069C35.8494 145.256 35.8666 145.465 35.8736 145.698C35.8795 145.93 35.8824 146.16 35.8824 146.386C35.8824 146.771 35.8666 147.193 35.8336 147.652C35.7993 148.11 35.7433 148.585 35.6641 149.076C35.504 150.112 35.2747 151.049 34.9762 151.887C34.6769 152.724 34.3875 153.415 34.109 153.96C33.977 154.199 33.8166 154.468 33.6304 154.766C33.4453 155.067 33.259 155.321 33.0727 155.535C32.8605 155.8 32.6212 156.046 32.3547 156.271C32.0894 156.498 31.7709 156.697 31.3983 156.869H31.4184C30.993 157.083 30.5683 157.245 30.1427 157.359C29.7171 157.47 29.2985 157.527 28.8871 157.527C28.5815 157.527 28.3282 157.508 28.129 157.468C27.6112 157.361 27.1667 157.182 26.7941 156.93C26.4216 156.677 26.1091 156.419 25.8568 156.152C25.4312 155.687 25.0999 155.241 24.8606 154.816C24.6213 154.392 24.4289 154.039 24.2817 153.761L24.3017 153.78C24.1695 153.475 24.0634 153.222 23.9834 153.023L23.9834 153.023Z" fill="#001680"/>
<path fillRule="evenodd" clipRule="evenodd" d="M23.9429 124.46C23.6774 124.127 23.5444 123.776 23.5444 123.403C23.5444 123.218 23.5843 123.035 23.6645 122.854C23.7437 122.677 23.8569 122.52 24.0031 122.387C24.2813 122.175 24.6108 122.104 24.9893 122.178C25.3677 122.251 25.7043 122.453 25.9967 122.786C26.0097 122.826 26.0297 122.858 26.0557 122.886C26.0828 122.912 26.1028 122.935 26.1158 122.956C26.1287 122.975 26.1429 122.998 26.1559 123.025C26.195 123.091 26.2691 123.198 26.3752 123.344C26.4813 123.491 26.6404 123.695 26.8539 123.961L26.8338 123.942C27.046 124.194 27.3215 124.504 27.6599 124.869C27.9995 125.234 28.4209 125.669 28.9255 126.174L29.0057 126.253V126.234C29.2722 126.474 29.5675 126.729 29.8929 127.001C30.2183 127.274 30.554 127.536 30.8994 127.788H30.8794C31.2118 128.015 31.5874 128.253 32.0059 128.506C32.4244 128.759 32.8999 128.985 33.4307 129.184C33.2845 128.878 33.1053 128.553 32.8931 128.207C32.6797 127.861 32.4613 127.51 32.2352 127.15C31.7164 126.327 31.1456 125.47 30.5207 124.579C30.4938 124.554 30.4777 124.53 30.4708 124.51C30.4647 124.49 30.4476 124.467 30.4207 124.44C30.2616 124.241 30.1222 124.048 30.0032 123.862L29.7438 123.502C29.7167 123.477 29.6878 123.443 29.6536 123.403C29.6206 123.363 29.5905 123.33 29.5646 123.304L29.5245 122.926L29.5445 122.029L29.7829 121.709C29.7968 121.683 29.8098 121.667 29.8227 121.66C29.8369 121.653 29.8499 121.637 29.8628 121.61C29.89 121.57 29.9259 121.507 29.9721 121.42C30.0191 121.334 30.1193 121.147 30.2714 120.862C30.4246 120.576 30.65 120.138 30.9493 119.547C31.2488 118.955 31.6644 118.128 32.1951 117.065C32.3413 116.72 32.4846 116.355 32.6237 115.969C32.7628 115.583 32.8999 115.185 33.0322 114.773C33.1383 114.401 33.2456 113.963 33.3517 113.457C33.4578 112.952 33.5439 112.38 33.6101 111.743C33.6241 111.623 33.6299 111.484 33.6299 111.324V110.886C33.6299 110.7 33.6241 110.481 33.6101 110.228C33.5969 109.976 33.57 109.717 33.5309 109.451C33.4639 109.026 33.3576 108.557 33.2114 108.045C33.0652 107.535 32.866 107.019 32.6137 106.5C32.056 105.306 31.4842 104.258 30.8994 103.361C30.3146 102.465 29.7707 101.664 29.2651 100.959C28.7473 100.242 28.2618 99.607 27.8103 99.056C27.3585 98.5045 26.96 98.0356 26.6136 97.6512C26.1488 97.1325 25.7232 96.6841 25.3389 96.3057C24.9533 95.9267 24.6678 95.6446 24.4815 95.4583L24.3414 95.2979C24.1823 95.14 24.06 94.9567 23.973 94.7513C23.8867 94.545 23.8437 94.3416 23.8437 94.1426C23.8437 93.9964 23.8667 93.8531 23.9138 93.7138C23.9598 93.5749 24.0361 93.4453 24.1422 93.3255C24.3686 93.06 24.6678 92.9261 25.0394 92.9261C25.2386 92.9261 25.445 92.974 25.6572 93.0659C25.8694 93.1593 26.0699 93.2981 26.2549 93.4844C26.295 93.5377 26.3451 93.5979 26.4043 93.6639C26.4642 93.7309 26.5544 93.834 26.6737 93.9734C26.7937 94.1122 26.946 94.2956 27.1323 94.522C27.3184 94.7474 27.5648 95.0456 27.8702 95.4182C28.1758 95.7766 28.5513 96.2484 28.9957 96.8332C29.4414 97.418 29.9359 98.0889 30.4809 98.8467C30.7471 99.2183 31.0395 99.654 31.3581 100.152C31.6764 100.65 32.0088 101.192 32.3543 101.777C32.6997 102.362 33.0493 102.983 33.4006 103.64C33.7532 104.298 34.0886 104.973 34.4071 105.663C34.7266 106.368 34.9789 107.072 35.1652 107.776C35.3513 108.481 35.4706 109.119 35.5236 109.69C35.5508 109.876 35.5667 110.086 35.5737 110.317C35.5806 110.551 35.5838 110.76 35.5838 110.945C35.5838 111.251 35.5737 111.564 35.5537 111.883C35.5337 112.201 35.5107 112.487 35.4835 112.74C35.4046 113.484 35.2943 114.189 35.1552 114.853C35.0159 115.517 34.8728 116.102 34.7266 116.607C34.5804 117.112 34.4272 117.597 34.268 118.062C34.1086 118.527 33.9165 119.031 33.6901 119.576C33.57 119.843 33.4378 120.125 33.2916 120.423C33.1454 120.723 32.9791 121.031 32.7929 121.35L32.8129 121.33C32.7999 121.357 32.7899 121.374 32.7828 121.381C32.777 121.388 32.7669 121.404 32.7528 121.431C32.6738 121.577 32.5877 121.736 32.4946 121.908C32.4015 122.081 32.3012 122.247 32.1951 122.407C32.155 122.474 32.132 122.51 32.125 122.516C32.1191 122.523 32.089 122.566 32.036 122.646C32.6207 123.577 33.1354 124.434 33.581 125.218C34.0255 126.001 34.4071 126.706 34.7266 127.33C34.8728 127.609 35.019 127.921 35.1652 128.267C35.3114 128.612 35.4376 128.965 35.5437 129.323C35.5838 129.456 35.6097 129.596 35.6239 129.742C35.6368 129.888 35.6439 130.041 35.6439 130.2C35.6168 130.373 35.5508 130.559 35.4444 130.759C35.3513 130.931 35.2283 131.071 35.075 131.178C34.9227 131.283 34.7535 131.35 34.5672 131.376L34.6073 131.357C34.4472 131.383 34.2949 131.39 34.1487 131.376C34.0025 131.363 33.8492 131.343 33.6901 131.317L33.7101 131.336C33.6441 131.323 33.5471 131.3 33.4207 131.267C33.2945 131.233 33.1715 131.197 33.0522 131.157H33.0723C32.4073 130.958 31.8267 130.721 31.328 130.45C30.8302 130.176 30.3816 129.914 29.9831 129.662C29.5846 129.397 29.2221 129.144 28.8967 128.905C28.571 128.666 28.2757 128.433 28.0095 128.207C27.5308 127.821 27.1062 127.47 26.7336 127.15C26.3622 126.832 26.0557 126.56 25.8163 126.333L25.6772 126.174C25.5841 126.081 25.5051 126.008 25.4379 125.955C25.3719 125.902 25.3046 125.842 25.2386 125.775C24.9201 125.47 24.6739 125.231 24.5015 125.059C24.3285 124.886 24.1422 124.686 23.9429 124.46V124.46ZM33.65 129.781C33.65 130.111 33.8085 130.282 34.1506 130.282C34.5048 130.282 34.6513 130.465 34.6513 130.783C34.6513 130.111 34.3582 129.781 33.65 129.781ZM34.9307 130.365C34.9307 129.656 34.6241 129.363 33.9294 129.363C34.6241 129.363 34.9307 129.656 34.9307 130.365Z" fill="#001680"/>
<path fillRule="evenodd" clipRule="evenodd" d="M23.8437 61.4147C23.6444 61.1223 23.5444 60.7967 23.5444 60.4373C23.5444 60.2119 23.5875 60.0056 23.6735 59.8207C23.7605 59.6344 23.8967 59.4809 24.083 59.3621C24.3884 59.1626 24.7341 59.1255 25.1184 59.2516C25.5051 59.3787 25.8163 59.6144 26.0557 59.9596V59.9396C26.1087 60.0056 26.1459 60.0628 26.1659 60.1087C26.186 60.1562 26.209 60.1992 26.2351 60.2393C26.2491 60.2652 26.2549 60.2823 26.2549 60.2882C26.2549 60.295 26.262 60.3112 26.275 60.338C26.3021 60.4055 26.3381 60.4774 26.3852 60.5576C26.4312 60.6368 26.5075 60.7639 26.6136 60.936C26.6537 61.0162 26.6935 61.0935 26.7336 61.1653C26.7737 61.2387 26.8268 61.3287 26.893 61.4338C26.9329 61.514 26.9729 61.5878 27.0121 61.6538C27.0522 61.7203 27.0991 61.8005 27.1522 61.8924V61.8733C27.1793 61.9394 27.2184 62.0127 27.2724 62.0929C27.3245 62.1716 27.3715 62.2459 27.4115 62.311C27.5047 62.4581 27.6039 62.6205 27.7101 62.8004C27.8171 62.9798 27.9232 63.1622 28.0296 63.3475H28.0095C28.0895 63.4947 28.1726 63.6409 28.2589 63.7871C28.3449 63.9333 28.4349 64.0795 28.5271 64.2247L28.7865 64.6642C28.8265 64.7303 28.8596 64.7963 28.8867 64.8632C28.9136 64.9297 28.9397 64.9757 28.9657 65.0026C29.3382 65.6544 29.7568 66.4044 30.2215 67.2547C30.687 68.1059 31.1786 69.076 31.6964 70.1644C31.7236 70.2177 31.7505 70.2788 31.7766 70.3438C31.8035 70.4108 31.8297 70.4641 31.8566 70.5042C31.8827 70.5712 31.9098 70.6274 31.9358 70.6734C31.9629 70.7203 31.9888 70.7624 32.0159 70.8025C32.3213 71.4415 32.6408 72.1212 32.9721 72.8463C33.3046 73.5704 33.604 74.4046 33.8693 75.3468C34.0287 75.9056 34.1717 76.484 34.2981 77.082C34.4243 77.679 34.4741 78.3176 34.4472 78.9958C34.4211 79.3542 34.3641 79.7297 34.2781 80.1213C34.1918 80.5139 34.0627 80.888 33.8893 81.2478C33.7031 81.6331 33.4407 81.9949 33.1024 82.3343C32.7628 82.6726 32.4015 82.9489 32.0159 83.1611C31.6844 83.3337 31.3581 83.4667 31.0395 83.5601C30.72 83.653 30.4078 83.7263 30.1022 83.7791C30.4347 84.0847 30.7672 84.4372 31.0987 84.8357V84.8157C31.3649 85.0939 31.6404 85.4102 31.9257 85.7628C32.2123 86.1143 32.5215 86.5158 32.853 86.9675C33.1716 87.4203 33.508 87.9288 33.8593 88.4926C34.2118 89.0583 34.5213 89.6724 34.7866 90.3369L34.7665 90.3168C35.0191 90.9417 35.2012 91.5529 35.3144 92.1504C35.4276 92.7484 35.4836 93.34 35.4836 93.9238V94.2837C35.4836 94.4166 35.4777 94.5296 35.4635 94.622C35.4376 94.9413 35.3745 95.287 35.2743 95.6596C35.1753 96.0307 35.032 96.3705 34.8457 96.6746C34.6465 97.0071 34.3842 97.3034 34.0588 97.562C33.7331 97.8212 33.4107 98.0045 33.0924 98.1106C32.7599 98.2167 32.4475 98.2798 32.1551 98.2999C31.8627 98.3189 31.5774 98.3228 31.2979 98.3101C31.0065 98.2827 30.7501 98.25 30.5308 98.2099C30.3115 98.1698 30.0954 98.1238 29.8829 98.0705C29.5375 97.9644 29.192 97.8515 28.8466 97.7322C28.5012 97.6119 28.1626 97.4799 27.8301 97.3327C27.3245 97.1073 26.8568 96.8912 26.4244 96.6849C25.9926 96.4795 25.6643 96.3103 25.4379 96.1768C25.3318 96.1108 25.2387 96.0507 25.1585 95.9979C25.0795 95.9446 25.0064 95.8986 24.9402 95.8585H24.9592C24.9062 95.8316 24.857 95.8087 24.8101 95.7886C24.7639 95.7686 24.728 95.7456 24.6998 95.7182L24.5417 95.6385C24.1561 95.3999 23.9029 95.0845 23.7838 94.6919C23.6645 94.3003 23.6975 93.9639 23.8828 93.6857C24.0429 93.4994 24.2253 93.363 24.4317 93.2759C24.6377 93.1899 24.847 93.1478 25.0595 93.1478C25.2057 93.1478 25.3518 93.164 25.498 93.1967C25.6442 93.23 25.7904 93.2872 25.9366 93.3664C25.9635 93.3933 25.9926 93.4192 26.0256 93.4461C26.0598 93.4725 26.1029 93.4994 26.1559 93.5263L26.1359 93.5052C26.162 93.5336 26.1919 93.5527 26.2261 93.5664C26.2591 93.5796 26.295 93.6065 26.3351 93.6456C26.4813 93.7517 26.6906 93.8949 26.9629 94.0744C27.2353 94.2533 27.6108 94.4827 28.0895 94.7609C28.3149 94.8953 28.5711 95.0303 28.8566 95.1706C29.1429 95.31 29.3984 95.4258 29.6235 95.5202C29.9159 95.6385 30.2455 95.7554 30.611 95.8678C30.9764 95.9808 31.352 96.0507 31.7365 96.0771C31.8966 96.0908 32.0519 96.0879 32.2052 96.0668C32.3585 96.0478 32.4875 96.0038 32.5936 95.9378C32.767 95.8444 32.909 95.7114 33.0222 95.5393C33.1354 95.3672 33.2185 95.1799 33.2716 94.9814L33.2515 95.0004C33.3576 94.5086 33.4107 94.0773 33.4107 93.7057C33.4107 92.8955 33.2386 92.0105 32.8931 91.0542C32.6408 90.3501 32.3484 89.7223 32.0159 89.1717C31.6844 88.6187 31.3449 88.1312 30.9994 87.7054C30.654 87.2668 30.3146 86.8653 29.9831 86.4996C29.6507 86.1344 29.3443 85.819 29.0659 85.5525C28.6402 85.1408 28.2256 84.7756 27.82 84.4573C27.4147 84.1375 27.0402 83.8525 26.6935 83.5987C26.6016 83.586 26.4813 83.5469 26.3351 83.4809H26.2351L26.3752 83.3606C26.3481 83.3464 26.285 83.2603 26.186 83.1014C26.0858 82.942 25.9858 82.7616 25.8865 82.5636C25.7875 82.3641 25.7002 82.1842 25.6271 82.0248C25.554 81.8654 25.5381 81.7793 25.577 81.7656L27.0923 81.3666L27.4115 81.4268L27.3115 81.3867C27.3915 81.4009 27.4707 81.4067 27.5509 81.4067C27.6308 81.4067 27.7039 81.4141 27.7702 81.4268C27.8103 81.4268 27.8462 81.4307 27.8802 81.4371C27.9132 81.4439 27.9433 81.4468 27.9694 81.4468C28.0755 81.46 28.1726 81.4669 28.2589 81.4669H28.5471H28.9255C29.0598 81.4669 29.1991 81.4542 29.3443 81.4268C29.5846 81.4009 29.8298 81.3608 30.0821 81.307C30.3347 81.2547 30.588 81.1618 30.8393 81.0283C31.0657 80.9222 31.2818 80.7618 31.4871 80.5496C31.6935 80.3374 31.8565 80.0582 31.9758 79.7125V79.7326C32.056 79.4935 32.112 79.248 32.145 78.9957C32.178 78.7434 32.1951 78.497 32.1951 78.2574C32.1822 78.0325 32.1651 77.7929 32.145 77.5397C32.125 77.2883 32.0949 77.0478 32.056 76.8229C31.9758 76.3711 31.8856 75.9584 31.7866 75.5868C31.6874 75.2147 31.5842 74.8759 31.4781 74.5708V74.5898C31.2378 73.9127 30.9864 73.2907 30.72 72.726C30.4547 72.1613 30.1694 71.5403 29.8628 70.8626C29.3443 69.852 28.8366 68.9259 28.3378 68.082C27.8401 67.2385 27.4047 66.5247 27.0321 65.9399C26.6475 65.3409 26.3221 64.8422 26.0557 64.4447C25.7904 64.0452 25.5511 63.7069 25.3389 63.4277C25.2186 63.2683 25.1125 63.125 25.0193 62.9989C24.9262 62.8727 24.8401 62.7564 24.76 62.6512C24.7079 62.5843 24.6539 62.5173 24.6008 62.4513C24.5477 62.3853 24.5015 62.3188 24.4615 62.2518L24.4815 62.2718C24.4546 62.219 24.4284 62.1789 24.4016 62.1525C24.3084 62.0327 24.2153 61.9134 24.1231 61.7931C24.03 61.6738 23.9368 61.5408 23.8437 61.3946V61.4147Z" fill="#001680"/>
<path fillRule="evenodd" clipRule="evenodd" d="M24.2815 31.2577C24.4418 31.1917 24.621 31.1848 24.8203 31.2376C25.0195 31.2919 25.2127 31.3873 25.398 31.5271C25.5843 31.6664 25.7676 31.8459 25.9468 32.0659C26.126 32.2845 26.2751 32.5265 26.3954 32.793C26.4084 32.8189 26.4184 32.8463 26.4245 32.8732C26.4314 32.8991 26.4414 32.926 26.4556 32.9534C26.4944 33.0585 26.5416 33.1744 26.5947 33.3005C26.6477 33.4267 26.7137 33.6032 26.7939 33.8296C26.834 33.9625 26.8831 34.1117 26.943 34.2779C27.0032 34.4442 27.0792 34.6534 27.1724 34.9047C27.2125 35.0118 27.2555 35.1341 27.3017 35.2744C27.3486 35.4137 27.3987 35.557 27.4508 35.7042L27.511 35.8821V35.8621C27.6973 36.4068 27.9466 37.1749 28.259 38.1645C28.5712 39.1547 28.8998 40.3345 29.2452 41.7031C29.6178 43.1909 29.9963 44.9844 30.3818 47.0844C30.7673 49.1844 31.0397 51.5627 31.1988 54.2201C31.212 54.5257 31.226 54.8049 31.2379 55.0572C31.2519 55.3095 31.2651 55.5598 31.278 55.8053C31.292 56.0507 31.302 56.3098 31.3081 56.5822C31.3152 56.8545 31.3181 57.1572 31.3181 57.4897C31.345 57.5024 31.3651 57.5097 31.3783 57.5097C31.3912 57.5097 31.4113 57.5156 31.4382 57.5288C31.7306 57.6359 31.989 57.7351 32.2153 57.828C32.4417 57.9214 32.727 58.0202 33.0725 58.1273C33.5771 57.742 34.1188 57.3493 34.6968 56.9518C35.2744 56.5524 35.9223 56.1407 36.6403 55.7153C36.7063 55.6884 36.7694 55.6522 36.8295 55.6062C36.8897 55.5598 36.9528 55.5231 37.0188 55.4957C37.2312 55.3896 37.4473 55.2806 37.6666 55.1667C37.8859 55.0552 38.1084 54.952 38.3345 54.8582C38.3878 54.8582 38.4208 54.8508 38.4347 54.8381C38.6201 54.7858 38.8022 54.7359 38.9826 54.689C39.1618 54.6425 39.3711 54.6195 39.6104 54.6195C39.7696 54.6195 39.9617 54.6489 40.1881 54.709C40.4145 54.7687 40.6528 54.9119 40.9061 55.1373C41.1584 55.3896 41.3078 55.6458 41.3547 55.9045C41.4007 56.1636 41.4168 56.3861 41.4039 56.5724C41.3777 56.879 41.3237 57.1303 41.2445 57.3303C41.1655 57.5288 41.0785 57.7219 40.9853 57.9082C40.9323 58.0143 40.846 58.1566 40.7269 58.3355C40.6066 58.516 40.4876 58.6783 40.3673 58.8255C40.1421 59.1037 39.9018 59.376 39.6505 59.6415C39.397 59.909 39.1388 60.1471 38.8723 60.3593C38.7132 60.4786 38.5269 60.6028 38.3147 60.7289C38.1022 60.8551 37.8629 60.9773 37.5967 61.0966C37.2512 61.2438 36.9488 61.324 36.6904 61.3367C36.431 61.3499 36.2017 61.3431 36.0025 61.3157C35.9885 61.3157 35.9724 61.3137 35.9524 61.3069C35.9333 61.3 35.9164 61.2966 35.9022 61.2966C35.5177 61.2565 35.1483 61.1969 34.7967 61.1177C34.4444 61.0375 34.1029 60.9441 33.7704 60.838H33.7905C33.7504 60.838 33.7032 60.8253 33.6502 60.7979L33.5702 60.7583C33.5181 60.7451 33.468 60.7348 33.4208 60.7289C33.3749 60.7221 33.3047 60.706 33.2116 60.6781C33.1456 60.7182 33.0954 60.7549 33.0624 60.7881C33.0294 60.8213 32.9793 60.8654 32.9133 60.9182L32.8933 60.9372C32.8001 61.0443 32.6798 61.1436 32.5336 61.2365C32.5077 61.2638 32.4847 61.28 32.4647 61.2858C32.4447 61.2927 32.4217 61.3098 32.3945 61.3367C32.3674 61.3631 32.3415 61.3787 32.3153 61.3871C32.2884 61.3929 32.2613 61.41 32.2354 61.436L32.2755 61.3959L31.9159 61.6951C31.8237 61.7616 31.7438 61.8247 31.6765 61.8848C31.6105 61.9445 31.5504 61.9875 31.4983 62.0139L31.3783 62.0941C31.3521 62.121 31.3181 62.1508 31.278 62.184C31.2379 62.2168 31.2059 62.2471 31.1788 62.273L29.1462 63.2103L29.3445 59.1829C29.013 59.0377 28.6744 58.8846 28.328 58.7252C27.9835 58.5649 27.6442 58.4128 27.3117 58.2666C27.1665 58.2006 27.0061 58.1273 26.834 58.0476C26.6607 57.9674 26.5015 57.894 26.3553 57.828C26.3282 57.8148 26.3052 57.808 26.2852 57.808C26.2651 57.808 26.2421 57.8021 26.2152 57.7889C26.1622 57.762 26.116 57.7351 26.0759 57.7087C25.7705 57.5767 25.5451 57.4755 25.398 57.4095C25.2527 57.3435 25.1026 57.2731 24.9494 57.2002C24.7973 57.1269 24.611 57.0408 24.3917 56.9411C24.1724 56.8418 23.837 56.6785 23.3852 56.4531C23.5977 56.7054 23.7769 56.9249 23.9231 57.1103C24.0693 57.2975 24.2154 57.4828 24.3616 57.6686C24.4817 57.8148 24.5848 57.9483 24.6711 58.0676C24.7572 58.1864 24.8403 58.2999 24.9203 58.4069C24.9865 58.473 25.0467 58.5419 25.0997 58.6152C25.1528 58.6891 25.1987 58.7521 25.2388 58.8045C25.2789 58.8446 25.3219 58.8944 25.3679 58.9546C25.4151 59.0147 25.431 59.0436 25.418 59.0436C25.4452 59.0709 25.4681 59.0939 25.4882 59.114C25.5082 59.134 25.5251 59.158 25.5383 59.1829C25.7505 59.4753 25.9097 59.7716 26.0158 60.0703C26.1231 60.3696 26.1761 60.6449 26.1761 60.8971C26.1761 61.3499 26.0229 61.6623 25.7175 61.8345H25.7376C25.5914 61.9406 25.418 61.9875 25.2188 61.9738C25.0195 61.9606 24.8142 61.9005 24.601 61.7944C24.3885 61.6883 24.1754 61.545 23.9632 61.3661C23.7507 61.1866 23.5576 60.9773 23.3852 60.7383C23.3192 60.6449 23.2591 60.5627 23.206 60.4889C23.153 60.4156 23.0999 60.3466 23.0469 60.2806C22.9928 60.2004 22.9408 60.1144 22.8865 60.02C22.8344 59.9281 22.7603 59.8146 22.6672 59.6816L22.5682 59.5824C22.5411 59.5296 22.5081 59.4822 22.468 59.4421L22.4081 59.3834C22.3819 59.356 22.3619 59.3301 22.3489 59.3032C22.1497 59.0235 21.9103 58.6891 21.6309 58.296C21.3524 57.9053 20.9801 57.4296 20.5144 56.8717C20.1428 56.4204 19.7174 55.9177 19.2387 55.3667C18.761 54.8152 18.2021 54.2201 17.5653 53.5825C16.4889 53.0246 15.2993 52.4066 13.9965 51.7289C12.6947 51.0508 11.2457 50.2606 9.6517 49.3566C9.6385 49.3434 9.59865 49.3204 9.5324 49.2867C9.46542 49.2534 9.40625 49.2246 9.35319 49.1972C8.83442 48.8921 8.31369 48.5826 7.78807 48.2711C7.26343 47.9587 6.78183 47.6423 6.34299 47.324C6.30314 47.2976 6.243 47.2507 6.16281 47.1837C6.08385 47.1187 6.00366 47.0517 5.92445 46.9842L5.84451 46.9055C5.80442 46.8791 5.75821 46.839 5.70516 46.7862C5.65211 46.7319 5.61201 46.6727 5.5861 46.6058L5.56605 46.5657C5.56605 46.5798 5.57216 46.593 5.5861 46.6058L5.40592 46.4268C5.40592 46.3994 5.41277 46.3867 5.42597 46.3867C5.41277 46.3745 5.39982 46.3476 5.38588 46.3075C5.37268 46.2674 5.33967 46.174 5.28662 46.0278V45.7897C5.28662 45.7496 5.29371 45.7027 5.30667 45.6494C5.31963 45.5966 5.33967 45.5374 5.36583 45.4704L5.34578 45.4504C5.49295 45.1306 5.65211 44.9257 5.82446 44.8323C5.99755 44.7394 6.18286 44.646 6.38308 44.5532L6.50239 44.5331C6.55544 44.5199 6.61239 44.5131 6.67157 44.5131H6.80162C6.92092 44.5131 7.03412 44.517 7.14021 44.5228C7.24632 44.5302 7.33335 44.54 7.3996 44.5532C7.6778 44.5932 7.95723 44.6563 8.23667 44.7424C8.51513 44.8294 8.78747 44.9125 9.05371 44.9917L9.25295 45.0519C10.3296 45.4763 11.3129 45.9618 12.203 46.5065C13.0934 47.0517 13.9243 47.5964 14.6944 48.141C15.744 48.8979 16.6842 49.646 17.5154 50.3829C18.3454 51.1212 19.0994 51.8292 19.7773 52.5059C20.2821 52.7591 20.7537 52.9914 21.1923 53.2036C21.6309 53.4173 22.0565 53.6221 22.468 53.8216H22.4479C23.9101 54.5125 25.1828 55.0802 26.2651 55.5261C27.3486 55.9715 28.348 56.3729 29.2653 56.7318L29.2853 56.7514C29.2983 56.7514 29.3083 56.7548 29.3154 56.7626C29.3213 56.7685 29.3323 56.7714 29.3445 56.7714C29.3323 56.3201 29.3125 55.8776 29.2853 55.4459C29.2582 55.0151 29.2323 54.5335 29.2051 54.0011C29.033 51.7426 28.7866 49.7223 28.4683 47.9416C28.1488 46.1613 27.8234 44.6661 27.4909 43.4574C27.1856 42.2478 26.8831 41.2014 26.5846 40.3174C26.2852 39.4339 26.0028 38.6672 25.7375 38.015C25.4711 37.2982 25.2488 36.7305 25.0696 36.312C24.8904 35.8934 24.7281 35.5238 24.5809 35.2055C24.5548 35.1512 24.5279 35.095 24.5017 35.0353C24.4748 34.9762 24.4487 34.9199 24.4218 34.8657C24.3956 34.7869 24.3656 34.7068 24.3326 34.6266C24.2986 34.5474 24.2624 34.4613 24.2225 34.3684V34.387C24.1693 34.2951 24.1233 34.2022 24.0832 34.1078C24.0431 34.0159 24.0101 33.9298 23.9832 33.8496L24.0033 33.8697C23.7769 33.3509 23.6647 32.8801 23.6647 32.4547C23.6647 32.175 23.7138 31.933 23.8138 31.7266C23.914 31.5213 24.0632 31.3721 24.2624 31.2778L24.2815 31.2577ZM37.9761 57.5687C37.7099 57.7159 37.4674 57.8479 37.2481 57.9672C37.0288 58.0875 36.8195 58.2005 36.6203 58.3066L36.6403 58.3266C36.5602 58.3799 36.4841 58.4298 36.411 58.4757C36.3379 58.5227 36.2678 58.5721 36.2018 58.6249C36.1086 58.6909 36.0355 58.731 35.9825 58.7452C35.9553 58.7711 35.8964 58.8112 35.8033 58.8654C35.8693 58.8782 35.9395 58.8845 36.0125 58.8845H36.2218C36.2878 58.8972 36.3741 58.9046 36.4812 58.9046C36.5342 58.9046 36.5802 58.9114 36.6203 58.9246C36.6995 58.8845 36.7966 58.8283 36.9098 58.754C37.022 58.6821 37.152 58.5921 37.2982 58.486C37.6838 58.1936 38.0754 57.8078 38.4739 57.3301L38.3947 57.3702C38.3678 57.3834 38.3406 57.3962 38.3147 57.4094C38.2747 57.4363 38.2216 57.4626 38.1553 57.4895C38.0884 57.5155 38.0353 57.5423 37.9962 57.5688L37.9761 57.5687ZM7.99749 46.0074C8.22572 46.1722 8.39433 46.3493 8.49505 46.5081C8.61229 46.6729 8.78089 46.85 8.99877 47.0088C8.56083 46.3494 8.22564 46.0074 7.9974 46.0074H7.99749Z" fill="#001680"/>
<path fillRule="evenodd" clipRule="evenodd" d="M24.3217 2.91449C24.1364 2.58201 23.9963 2.25735 23.9031 1.93806C23.811 1.61878 23.764 1.33324 23.764 1.08094C23.764 0.590038 23.9232 0.257545 24.2425 0.08446C24.4019 0.0052522 24.585 -0.0187104 24.7903 0.0145448C24.9967 0.0472994 25.2018 0.131404 25.4081 0.263904C25.6144 0.396895 25.8208 0.576339 26.0259 0.802727C26.2322 1.02764 26.4214 1.27994 26.5948 1.55962C26.6207 1.61242 26.6539 1.66572 26.6938 1.71901C26.7339 1.77182 26.7669 1.82512 26.794 1.8789C26.807 1.90482 26.8202 1.93513 26.8341 1.96789C26.8471 2.00114 26.86 2.03097 26.8732 2.05835C26.9133 2.16347 26.9664 2.28033 27.0324 2.40648C27.0994 2.53311 27.1857 2.693 27.2918 2.88418C27.3988 3.0778 27.5311 3.31005 27.6903 3.5824C27.8504 3.85474 28.0496 4.18429 28.289 4.5686V4.54953C28.6877 5.18761 29.2094 5.9846 29.8531 6.94097C30.498 7.89832 31.3383 9.03366 32.3746 10.3494V10.3294C32.8934 10.9674 33.4941 11.6784 34.1781 12.4621C34.8631 13.2464 35.6271 14.0747 36.4713 14.9445C37.3144 15.8149 38.2347 16.7179 39.2319 17.6552C40.2283 18.5916 41.2918 19.5318 42.4203 20.4755C43.7492 21.538 45.2381 22.6141 46.8853 23.7035C48.5336 24.7944 50.3471 25.8637 52.3278 26.913C54.3075 27.9637 56.4535 28.9739 58.7655 29.943C61.0777 30.9135 63.5621 31.8107 66.2207 32.6336H66.2007C66.3197 32.661 66.4161 32.6908 66.4892 32.7241C66.5623 32.7568 66.6322 32.794 66.6984 32.8341C66.7253 32.8473 66.7683 32.8742 66.8285 32.9133C66.8886 32.9534 66.9436 32.9862 66.9977 33.0135L67.2761 33.2927L67.236 33.3318C67.2761 33.3846 67.3133 33.435 67.3463 33.4819C67.3793 33.5279 67.4094 33.5641 67.4362 33.591C67.4895 33.7372 67.5225 33.8936 67.5355 34.0599C67.5485 34.2251 67.5355 34.3753 67.4964 34.5082C67.4424 34.6535 67.3764 34.7869 67.2962 34.9058C67.217 35.026 67.137 35.1121 67.0578 35.1664L67.0177 35.1854C66.8847 35.3184 66.7314 35.3976 66.5591 35.4245C66.439 35.4646 66.3669 35.4847 66.3398 35.4847C66.2997 35.4979 66.2466 35.5047 66.1806 35.5047H66.0205H65.4626C65.4357 35.5047 65.4096 35.5008 65.3827 35.4949C65.3565 35.4876 65.3294 35.4847 65.3035 35.4847C65.0771 35.4587 64.8549 35.4319 64.6356 35.4045C64.4163 35.3786 64.207 35.3517 64.0078 35.3243C63.6623 35.2583 63.3198 35.1825 62.9812 35.095C62.6429 35.0089 62.3194 34.9331 62.0151 34.8657L62.0351 34.8867C61.9808 34.874 61.9349 34.8637 61.8948 34.8569C61.8547 34.85 61.8087 34.8407 61.7557 34.8256C61.0778 34.6535 60.4428 34.4853 59.852 34.319C59.2603 34.1528 58.7054 33.9895 58.1878 33.8306C57.1645 33.5108 56.2071 33.2086 55.317 32.9231C54.4266 32.637 53.5035 32.3285 52.5461 31.996L51.709 31.6963C51.5628 31.6445 51.4206 31.5946 51.2805 31.5472C51.1411 31.5012 50.9979 31.4513 50.8529 31.398C50.5605 31.2929 50.2569 31.1858 49.9457 31.0797C49.6332 30.9736 49.3046 30.8592 48.9592 30.7404C48.082 30.4348 47.0878 30.0833 45.9791 29.6838C44.8697 29.2853 43.6329 28.8438 42.2712 28.3587C40.9092 27.8732 39.4113 27.3354 37.777 26.7438C36.1417 26.1531 34.3615 25.5053 32.4348 24.8012C31.7439 24.5489 31.0459 24.2927 30.3418 24.033C29.637 23.7749 28.9659 23.5245 28.3281 23.285C28.6606 23.7377 28.9801 24.1822 29.2855 24.6208C29.5908 25.0593 29.8832 25.4852 30.1626 25.8964C30.7474 26.7741 31.2892 27.6112 31.7869 28.4081C32.2856 29.2061 32.7401 29.9762 33.1518 30.7204C33.352 31.0929 33.5383 31.4714 33.7104 31.8567C33.8828 32.2425 34.0429 32.6136 34.1891 32.9734C34.2683 33.1724 34.3353 33.3788 34.3874 33.591C34.4414 33.8032 34.4876 34.0227 34.5275 34.2491V34.3884C34.5407 34.4945 34.5507 34.6046 34.5575 34.7165C34.5646 34.83 34.5546 34.96 34.5275 35.1052C34.5145 35.2925 34.4614 35.4817 34.3683 35.6739C34.2752 35.866 34.1422 36.0494 33.9688 36.2215L33.9498 36.2416C33.8828 36.3359 33.7706 36.4278 33.6104 36.5212L33.4711 36.6004L33.3921 36.64C33.352 36.6801 33.3048 36.7075 33.2518 36.7202C33.1718 36.7476 33.1127 36.7603 33.0726 36.7603C32.9794 36.7862 32.9002 36.8126 32.8332 36.8405C32.7672 36.8654 32.7142 36.8865 32.6741 36.8997C32.621 36.9266 32.5809 36.9398 32.5538 36.9398C32.3546 36.9657 32.1353 36.9799 31.8969 36.9799C31.6566 36.9799 31.4444 36.9657 31.2581 36.9398C30.9527 36.9129 30.6572 36.8596 30.3719 36.7794C30.0866 36.7002 29.8172 36.6283 29.5649 36.5613C29.2052 36.4552 28.8569 36.3247 28.5183 36.1716C28.1789 36.0196 27.8775 35.8832 27.611 35.7639C27.5841 35.7511 27.558 35.7409 27.5311 35.734C27.5049 35.7272 27.479 35.7169 27.4509 35.7042L27.5712 35.7242C27.558 35.7242 27.548 35.7198 27.5411 35.713C27.534 35.7071 27.525 35.7042 27.511 35.7042H27.3917C27.3519 35.7042 27.2986 35.6768 27.2326 35.625C26.674 35.3453 26.2393 35.116 25.9268 34.937C25.6144 34.7566 25.398 34.6344 25.279 34.5674C24.9736 34.3821 24.7081 34.1758 24.4818 33.9494C24.2556 33.7244 24.0794 33.4981 23.9532 33.2717C23.8271 33.0463 23.754 32.8263 23.7339 32.6136C23.7139 32.4014 23.7508 32.2224 23.8439 32.0762C23.95 31.93 24.0794 31.8268 24.2327 31.7667C24.3847 31.7075 24.5549 31.6777 24.7402 31.6777C24.9925 31.6777 25.2861 31.7344 25.6174 31.8469C25.9498 31.9598 26.2894 32.109 26.6339 32.2953L26.6539 32.3153H26.6339C26.6608 32.3285 26.6779 32.3383 26.684 32.3446C26.6908 32.3525 26.708 32.3613 26.7339 32.3754C26.8001 32.4155 26.87 32.4546 26.9431 32.4947C27.0162 32.5339 27.0793 32.5676 27.1326 32.595C27.2788 32.7001 27.525 32.8473 27.8704 33.0326C28.0428 33.1397 28.2391 33.2526 28.4584 33.3719C28.6777 33.4907 28.9199 33.6042 29.1862 33.7113C29.4517 33.8306 29.7671 33.9596 30.1325 34.099C30.498 34.2388 30.9197 34.3611 31.3982 34.4681C31.4913 34.4945 31.5876 34.5102 31.6876 34.5185C31.7869 34.5253 31.8629 34.5273 31.916 34.5273H32.1553C32.1424 34.4222 32.1252 34.3083 32.1062 34.1889C32.0861 34.0687 32.0431 33.9367 31.9761 33.7905C31.7238 33.0722 31.3813 32.3124 30.9496 31.5071C30.5181 30.7042 30.0365 29.8632 29.5047 28.9861C29.2654 28.5881 28.983 28.1368 28.6576 27.6312C28.3322 27.1261 27.9836 26.6015 27.611 26.0568C27.2387 25.5121 26.8541 24.9532 26.4557 24.3826C26.0559 23.8106 25.6645 23.259 25.279 22.7276L25.0998 22.488C25.0467 22.4229 25.0035 22.3559 24.9695 22.289C24.9375 22.2225 24.8935 22.1565 24.8404 22.0905C24.8404 22.0763 24.8275 22.0562 24.8003 22.0293C24.7874 22.0044 24.7702 21.9834 24.7512 21.9702C24.7311 21.9575 24.7081 21.9374 24.6813 21.91L24.4219 21.7712L24.4617 21.6108L24.4219 21.5717L24.3417 21.4514C24.3155 21.4255 24.2857 21.3927 24.2525 21.3526C24.2195 21.3125 24.1894 21.2793 24.1625 21.2534L23.864 20.9527C23.9302 20.8877 24.0202 20.7806 24.1324 20.6344C24.2456 20.4882 24.3155 20.3953 24.3417 20.3562C24.4488 20.2359 24.515 20.1557 24.5419 20.1156C24.5681 20.0765 24.5681 20.0765 24.5419 20.1156V20.1557C24.5681 20.1039 24.6082 20.0437 24.6612 19.9768C24.7143 19.9107 24.7742 19.8174 24.8404 19.6971C25.0267 19.7645 25.2128 19.8374 25.3981 19.9176C25.5844 19.9968 25.7046 20.0506 25.7577 20.0765C25.7706 20.0765 25.7836 20.0799 25.7965 20.0868C25.8107 20.0926 25.8237 20.0965 25.8366 20.0965C25.8638 20.1097 25.8997 20.1229 25.9469 20.1366C25.9929 20.1498 26.03 20.163 26.0559 20.1767C26.096 20.1899 26.1432 20.21 26.1953 20.2359C26.2493 20.2628 26.3024 20.2828 26.3554 20.296C26.4214 20.3219 26.4845 20.3449 26.5446 20.3659C26.6048 20.385 26.6679 20.408 26.7339 20.4354C26.9732 20.5283 27.2155 20.6217 27.4619 20.7146C27.7073 20.808 27.9567 20.9067 28.209 21.0138C28.9529 21.3062 29.747 21.6147 30.5912 21.9404C31.4353 22.2655 32.2814 22.5882 33.1327 22.9065C35.8965 23.9568 38.3407 24.8701 40.4676 25.6485C42.5936 26.4245 44.487 27.1002 46.1485 27.6713C47.8097 28.2419 49.2736 28.7343 50.5434 29.146C51.8122 29.5576 52.9646 29.9229 54.0019 30.2417C53.8689 30.1767 53.7357 30.1092 53.6024 30.0432C53.4704 29.9762 53.344 29.9102 53.224 29.8442C52.2938 29.3523 51.4305 28.881 50.6323 28.4282C49.8354 27.9764 49.0983 27.5378 48.4204 27.1124C47.7556 26.6875 47.1188 26.2754 46.5069 25.8779C45.8959 25.4779 45.2882 25.0667 44.6833 24.6408C44.0785 24.2164 43.4666 23.7749 42.8498 23.3163C42.231 22.8576 41.5771 22.356 40.8862 21.8113C38.7334 20.057 36.9157 18.4224 35.4347 16.9076C33.9527 15.3924 32.687 14.0366 31.6375 12.8421C30.6012 11.6451 29.747 10.609 29.0762 9.73186C28.4053 8.85469 27.8374 8.10465 27.3717 7.47978C26.9202 6.85491 26.5476 6.33027 26.2552 5.9044C25.9638 5.47999 25.7076 5.10155 25.4883 4.76906C25.269 4.43658 25.0698 4.13099 24.8906 3.8518C24.7111 3.57211 24.5219 3.26066 24.3217 2.91448L24.3217 2.91449Z" fill="#001680"/>
</svg>
